<svg width="15" height="21" viewBox="0 0 15 21" fill="none" xmlns="http://www.w3.org/2000/svg">
<path d="M7.848 18C6.808 18 5.824 17.888 4.896 17.664C3.984 17.424 3.152 17.096 2.4 16.68C1.648 16.264 1.016 15.784 0.504 15.24L2.448 12.552C2.832 13.08 3.328 13.528 3.936 13.896C4.56 14.264 5.232 14.544 5.952 14.736C6.688 14.928 7.392 15.024 8.064 15.024C8.912 15.024 9.576 14.896 10.056 14.64C10.536 14.384 10.776 14 10.776 13.488C10.776 13.152 10.632 12.872 10.344 12.648C10.056 12.424 9.56 12.232 8.856 12.072L5.616 11.304C4.752 11.096 3.984 10.816 3.312 10.464C2.656 10.112 2.136 9.664 1.752 9.12C1.384 8.56 1.2 7.904 1.2 7.152C1.2 6.176 1.464 5.312 1.992 4.56C2.52 3.808 3.28 3.224 4.272 2.808C5.264 2.376 6.456 2.16 7.848 2.16C9.272 2.16 10.528 2.376 11.616 2.808C12.72 3.24 13.672 3.896 14.472 4.776L12.6 7.2C11.944 6.496 11.208 5.968 10.392 5.616C9.592 5.248 8.672 5.064 7.632 5.064C6.992 5.064 6.472 5.136 6.072 5.28C5.672 5.408 5.376 5.592 5.184 5.832C4.992 6.056 4.896 6.312 4.896 6.6C4.896 6.84 4.952 7.056 5.064 7.248C5.192 7.44 5.424 7.616 5.76 7.776C6.112 7.92 6.624 8.072 7.296 8.232L9.912 8.808C11.432 9.144 12.552 9.64 13.272 10.296C13.992 10.936 14.352 11.824 14.352 12.96C14.352 14.048 14.072 14.968 13.512 15.72C12.952 16.472 12.176 17.04 11.184 17.424C10.208 17.808 9.096 18 7.848 18ZM6.6 20.112V0.0479994H9.12V20.112H6.6Z" fill="#969696"/>
</svg>
