<svg width="44" height="44" viewBox="0 0 44 44" fill="none" xmlns="http://www.w3.org/2000/svg">
<path d="M41.3595 40.4798H39.5995V33.1939L36.7035 34.1591L35.9867 35.5934C35.9351 35.6967 35.8635 35.7888 35.7762 35.8644C35.6889 35.9401 35.5876 35.9978 35.478 36.0342L33.4396 36.714V38.7198C33.4395 38.8144 33.4241 38.9085 33.394 38.9982L32.9003 40.4798H31.0457L31.6797 38.5771V36.0798C31.6796 35.8951 31.7377 35.7151 31.8456 35.5654C31.9536 35.4156 32.106 35.3036 32.2812 35.2453L34.5757 34.4805L35.2924 33.0462C35.3441 32.9429 35.4156 32.8508 35.5029 32.7751C35.5902 32.6995 35.6916 32.6418 35.8012 32.6053L39.5996 31.3394V26.0637L33.8331 28.947C33.6244 29.0514 33.3827 29.0685 33.1612 28.9947C32.9398 28.9209 32.7568 28.7621 32.6524 28.5533C32.548 28.3446 32.5308 28.1029 32.6047 27.8814C32.6785 27.66 32.8372 27.477 33.046 27.3726L34.0188 26.8862L33.5324 25.9134C33.4799 25.8099 33.4483 25.6971 33.4395 25.5814C33.4308 25.4657 33.445 25.3494 33.4813 25.2392C33.5177 25.129 33.5754 25.027 33.6513 24.9392C33.7272 24.8515 33.8197 24.7796 33.9235 24.7277C34.0273 24.6758 34.1403 24.6449 34.2561 24.6369C34.3718 24.6288 34.4881 24.6437 34.598 24.6808C34.708 24.7178 34.8096 24.7762 34.8969 24.8527C34.9842 24.9291 35.0555 25.0221 35.1067 25.1262L35.5931 26.099L39.5995 24.0958V22.8798H26.3997C25.9519 22.8813 25.5111 22.7681 25.1194 22.5511C24.7277 22.334 24.3981 22.0202 24.1619 21.6397L21.9998 18.1807L19.8385 21.6388C19.6023 22.0196 19.2726 22.3335 18.8807 22.5507C18.4888 22.7679 18.0479 22.8812 17.5998 22.8798H4.4V33.8803L8.27229 30.9759C8.42442 30.8615 8.60961 30.7997 8.79995 30.7998H10.7189L11.4571 27.107C11.4798 26.9937 11.5246 26.886 11.5889 26.79C11.6532 26.694 11.7358 26.6116 11.832 26.5475C11.9281 26.4835 12.0359 26.4389 12.1493 26.4165C12.2627 26.3941 12.3793 26.3943 12.4926 26.417C12.6059 26.4396 12.7137 26.4844 12.8097 26.5487C12.9057 26.6131 12.9881 26.6957 13.0521 26.7918C13.1162 26.888 13.1607 26.9958 13.1831 27.1092C13.2055 27.2225 13.2054 27.3392 13.1827 27.4525L12.3027 31.8525C12.2627 32.0519 12.1549 32.2313 11.9976 32.3602C11.8403 32.4891 11.6433 32.5596 11.4399 32.5598H9.78392L10.4671 33.9262C10.5188 34.0295 10.5496 34.1421 10.5578 34.2574C10.566 34.3727 10.5515 34.4884 10.5149 34.5981C10.4784 34.7077 10.4206 34.8091 10.3448 34.8964C10.2691 34.9837 10.1769 35.0553 10.0735 35.1069C9.86425 35.2082 9.6237 35.2237 9.40314 35.1502C9.18258 35.0767 8.99945 34.9199 8.89275 34.7134L8.16423 33.2563L4.4 36.0796V40.4798H2.64C2.40661 40.4798 2.18278 40.5725 2.01775 40.7375C1.85272 40.9025 1.76 41.1264 1.76 41.3598C1.76 41.5932 1.85272 41.817 2.01775 41.982C2.18278 42.1471 2.40661 42.2398 2.64 42.2398H41.3595C41.5929 42.2398 41.8168 42.1471 41.9818 41.982C42.1468 41.817 42.2395 41.5932 42.2395 41.3598C42.2395 41.1264 42.1468 40.9025 41.9818 40.7375C41.8168 40.5725 41.5929 40.4798 41.3595 40.4798ZM25.5198 40.4798V38.1739L19.0759 36.793L18.4799 37.2302V40.4798H16.7199V38.5209L15.4807 39.4296C15.2913 39.5645 15.0568 39.6201 14.827 39.5848C14.5972 39.5495 14.3902 39.426 14.2501 39.2406C14.1121 39.0522 14.0546 38.8169 14.09 38.5861C14.1255 38.3554 14.251 38.1482 14.4391 38.0099L16.7199 36.3374V36.2882L15.6551 36.06C15.5422 36.0358 15.4351 35.9895 15.34 35.9238C15.2449 35.8582 15.1637 35.7745 15.1009 35.6774C15.0382 35.5804 14.9952 35.472 14.9744 35.3583C14.9536 35.2446 14.9554 35.128 14.9796 35.015C15.0039 34.9021 15.0501 34.795 15.1158 34.6999C15.1814 34.6048 15.2652 34.5236 15.3622 34.4609C15.4592 34.3981 15.5677 34.3551 15.6813 34.3343C15.795 34.3135 15.9116 34.3153 16.0246 34.3395L16.7198 34.4885V31.0082L15.655 30.78C15.4269 30.731 15.2275 30.5934 15.1009 30.3974C14.9742 30.2014 14.9306 29.9631 14.9796 29.735C15.0286 29.5068 15.1662 29.3075 15.3622 29.1808C15.5582 29.0542 15.7964 29.0105 16.0246 29.0595L16.7198 29.2085V27.2798C16.7197 27.1642 16.7424 27.0497 16.7866 26.9429C16.8308 26.8361 16.8956 26.7391 16.9774 26.6574C17.0591 26.5756 17.1561 26.5108 17.2629 26.4666C17.3697 26.4224 17.4842 26.3997 17.5998 26.3998H26.3997C26.5153 26.3997 26.6297 26.4224 26.7365 26.4666C26.8433 26.5108 26.9404 26.5756 27.0221 26.6574C27.1038 26.7391 27.1686 26.8361 27.2128 26.9429C27.257 27.0497 27.2797 27.1642 27.2797 27.2798V28.5934L27.6389 28.3299C27.8271 28.1918 28.0626 28.1341 28.2934 28.1696C28.5241 28.205 28.7314 28.3307 28.8695 28.519C29.0076 28.7073 29.0653 28.9427 29.0298 29.1735C28.9944 29.4042 28.8687 29.6115 28.6804 29.7496L27.2797 30.7768V31.4714L28.3444 31.6995C28.4574 31.7237 28.5646 31.7699 28.6597 31.8356C28.7549 31.9012 28.8361 31.9849 28.8989 32.082C28.9616 32.1791 29.0046 32.2875 29.0254 32.4012C29.0461 32.5149 29.0443 32.6316 29.0199 32.7446C28.9676 32.9708 28.8293 33.1678 28.6342 33.2939C28.4392 33.42 28.2027 33.4652 27.9749 33.42L27.2797 33.2711V36.7514L28.3445 36.9796C28.4575 37.0038 28.5646 37.05 28.6598 37.1156C28.7549 37.1812 28.8361 37.265 28.8989 37.362C28.9616 37.4591 29.0046 37.5675 29.0254 37.6812C29.0462 37.7949 29.0443 37.9116 29.02 38.0245C28.9667 38.2503 28.8282 38.4467 28.6334 38.5726C28.4386 38.6985 28.2027 38.7442 27.975 38.7L27.2798 38.5511V40.4798H25.5198ZM32.5597 7.03977H23.7598V6.15977C23.7597 6.04418 23.7824 5.92972 23.8266 5.82293C23.8708 5.71613 23.9356 5.61909 24.0174 5.53736C24.0991 5.45563 24.1961 5.39082 24.3029 5.34662C24.4097 5.30241 24.5242 5.2797 24.6398 5.27977H26.3998V2.63977C26.3997 2.52418 26.4224 2.40972 26.4666 2.30292C26.5108 2.19613 26.5756 2.09909 26.6574 2.01736C26.7391 1.93563 26.8361 1.87082 26.9429 1.82662C27.0497 1.78241 27.1642 1.7597 27.2798 1.75977H31.6797C31.7953 1.7597 31.9098 1.78241 32.0166 1.82662C32.1234 1.87082 32.2204 1.93563 32.3021 2.01736C32.3839 2.09909 32.4487 2.19613 32.4929 2.30292C32.5371 2.40972 32.5598 2.52418 32.5597 2.63977L32.5597 7.03977ZM38.3836 12.3198H5.616L7.13278 9.28617C7.20591 9.14002 7.31828 9.01711 7.45731 8.9312C7.59634 8.8453 7.75653 8.79979 7.91996 8.79977H36.0796C36.243 8.79979 36.4032 8.8453 36.5423 8.9312C36.6813 9.01711 36.7937 9.14002 36.8668 9.28617L38.3836 12.3198ZM1.89152 20.7021C1.81249 20.5746 1.76744 20.429 1.76066 20.2792C1.75388 20.1293 1.7856 19.9803 1.8528 19.8462L2.97603 17.5998H20.2874L18.3458 20.7064C18.2667 20.8329 18.1567 20.9372 18.0262 21.0095C17.8957 21.0818 17.749 21.1197 17.5998 21.1198H2.64002C2.49001 21.1197 2.3425 21.0813 2.2115 21.0082C2.0805 20.9351 1.97036 20.8297 1.89152 20.7021ZM23.7121 17.5998H41.0235L42.1467 19.8462C42.2137 19.9804 42.2453 20.1294 42.2385 20.2793C42.2318 20.4291 42.1868 20.5747 42.1079 20.7023C42.0291 20.8298 41.919 20.9352 41.788 21.0082C41.657 21.0813 41.5095 21.1197 41.3595 21.1198H26.3997C26.2506 21.1197 26.1038 21.0818 25.9733 21.0095C25.8429 20.9372 25.7329 20.8329 25.6538 20.7064L23.7121 17.5998ZM18.4798 28.1598H25.5198V29.884L24.2427 30.8206L18.4798 29.5856V28.1598ZM24.6477 32.707L25.5198 32.8939V36.3742L20.9751 35.4003L24.6477 32.707ZM22.3435 32.2133L18.6709 34.9066L18.4798 34.8657V31.3853L22.3435 32.2133ZM3.85602 15.8398L4.73602 14.0798H39.2636L40.1436 15.8398H3.85602Z" fill="#D34B0F"/>
</svg>
