<svg width="18" height="18" viewBox="0 0 18 18" fill="none" xmlns="http://www.w3.org/2000/svg">
<path d="M2.8125 5.25C2.8125 4.93934 2.56066 4.6875 2.25 4.6875C1.93934 4.6875 1.6875 4.93934 1.6875 5.25H2.8125ZM1.6875 13.5C1.6875 13.8107 1.93934 14.0625 2.25 14.0625C2.56066 14.0625 2.8125 13.8107 2.8125 13.5H1.6875ZM2.25 9.9375C1.93934 9.9375 1.6875 10.1893 1.6875 10.5C1.6875 10.8107 1.93934 11.0625 2.25 11.0625V9.9375ZM15.75 11.0625C16.0607 11.0625 16.3125 10.8107 16.3125 10.5C16.3125 10.1893 16.0607 9.9375 15.75 9.9375V11.0625ZM15.1875 13.5C15.1875 13.8107 15.4393 14.0625 15.75 14.0625C16.0607 14.0625 16.3125 13.8107 16.3125 13.5H15.1875ZM8.25 6V5.4375C7.93934 5.4375 7.6875 5.68934 7.6875 6H8.25ZM7.6875 10.5C7.6875 10.8107 7.93934 11.0625 8.25 11.0625C8.56066 11.0625 8.8125 10.8107 8.8125 10.5H7.6875ZM1.6875 5.25V13.5H2.8125V5.25H1.6875ZM2.25 11.0625H15.75V9.9375H2.25V11.0625ZM16.3125 13.5V7.5H15.1875V13.5H16.3125ZM16.3125 7.5C16.3125 6.36091 15.3891 5.4375 14.25 5.4375V6.5625C14.7678 6.5625 15.1875 6.98223 15.1875 7.5H16.3125ZM14.25 5.4375H8.25V6.5625H14.25V5.4375ZM7.6875 6V10.5H8.8125V6H7.6875Z" fill="#D34B0F"/>
<circle cx="5.25" cy="7.5" r="0.75" stroke="#D34B0F" stroke-width="1.125" stroke-linecap="round" stroke-linejoin="round"/>
</svg>
