<svg width="24" height="24" viewBox="0 0 24 24" fill="none" xmlns="http://www.w3.org/2000/svg">
<path d="M13.0571 19.7732H5.50836V8.31701C5.50885 8.25018 5.52718 8.18471 5.56147 8.12735C5.59575 8.06999 5.64474 8.02283 5.70336 7.99076L12.5021 4.27454C12.5593 4.24325 12.6236 4.22741 12.6888 4.22858C12.754 4.22974 12.8177 4.24788 12.8738 4.28119C12.9298 4.3145 12.9762 4.36185 13.0083 4.41855C13.0405 4.47525 13.0573 4.53935 13.0571 4.60454V19.7732Z" stroke="#D97B28" stroke-width="0.818178" stroke-linecap="round"/>
<path d="M18.3259 19.7731H13.0947V8.0957L18.1497 10.9869C18.2037 11.0207 18.2483 11.0677 18.2791 11.1235C18.3099 11.1792 18.326 11.2419 18.3259 11.3057V19.7731Z" stroke="#D97B28" stroke-width="0.818178" stroke-linecap="round"/>
<path d="M10.5371 9.32129H7.89709" stroke="#D97B28" stroke-width="0.818178" stroke-linecap="round"/>
<path d="M16.3722 12.1533H15.0522" stroke="#D97B28" stroke-width="0.818178" stroke-linecap="round"/>
<path d="M16.3722 13.8369H15.0522" stroke="#D97B28" stroke-width="0.818178" stroke-linecap="round"/>
<path d="M16.3722 15.6406H15.0522" stroke="#D97B28" stroke-width="0.818178" stroke-linecap="round"/>
<path d="M16.3722 17.3213H15.0522" stroke="#D97B28" stroke-width="0.818178" stroke-linecap="round"/>
<path d="M10.5372 11.4141H7.89716" stroke="#D97B28" stroke-width="0.818178" stroke-linecap="round"/>
<path d="M10.5372 13.4766H7.89716" stroke="#D97B28" stroke-width="0.818178" stroke-linecap="round"/>
<path d="M10.5372 15.5391H7.89716" stroke="#D97B28" stroke-width="0.818178" stroke-linecap="round"/>
<path d="M10.5372 17.6016H7.89716" stroke="#D97B28" stroke-width="0.818178" stroke-linecap="round"/>
<path d="M3.54724 19.7734H20.4522" stroke="#D97B28" stroke-width="0.818178" stroke-linecap="round"/>
</svg>
