<svg width="48" height="48" viewBox="0 0 48 48" fill="none" xmlns="http://www.w3.org/2000/svg">
<path d="M18 22L24 28L40 12" stroke="#D97B28" stroke-width="3" stroke-linecap="round" stroke-linejoin="round"/>
<path d="M18 22L24 28L40 12" stroke="white" stroke-opacity="0.2" stroke-width="3" stroke-linecap="round" stroke-linejoin="round"/>
<path d="M40 24V36C40 38.2091 38.2091 40 36 40H12C9.79086 40 8 38.2091 8 36V12C8 9.79086 9.79086 8 12 8H30" stroke="#D97B28" stroke-width="3" stroke-linecap="round" stroke-linejoin="round"/>
<path d="M40 24V36C40 38.2091 38.2091 40 36 40H12C9.79086 40 8 38.2091 8 36V12C8 9.79086 9.79086 8 12 8H30" stroke="white" stroke-opacity="0.2" stroke-width="3" stroke-linecap="round" stroke-linejoin="round"/>
</svg>
