<svg width="33" height="33" viewBox="0 0 33 33" fill="none" xmlns="http://www.w3.org/2000/svg">
<path d="M25.4375 4.125H22C21.6204 4.125 21.3125 4.43281 21.3125 4.8125V4.8935L26.125 8.7435V4.8125C26.125 4.43281 25.8173 4.125 25.4375 4.125Z" fill="#D97B28"/>
<path fill-rule="evenodd" clip-rule="evenodd" d="M14.7812 13.0625C14.7812 12.1133 15.5508 11.3438 16.5 11.3438C17.4493 11.3438 18.2187 12.1133 18.2187 13.0625C18.2187 14.0118 17.4493 14.7812 16.5 14.7812C15.5508 14.7812 14.7812 14.0118 14.7812 13.0625Z" fill="#D97B28"/>
<path fill-rule="evenodd" clip-rule="evenodd" d="M28.5312 15.0703L29.6058 15.93C30.0506 16.2857 30.6995 16.2136 31.0553 15.7688C31.411 15.3242 31.339 14.6752 30.8942 14.3193L19.7211 5.38088C17.838 3.87434 15.1621 3.87434 13.2789 5.38088L2.10582 14.3193C1.66108 14.6752 1.58898 15.3242 1.94477 15.7688C2.30055 16.2136 2.94951 16.2857 3.39425 15.93L4.46879 15.0703V29.2184H2.75004C2.18049 29.2184 1.71879 29.6801 1.71879 30.2497C1.71879 30.8192 2.18049 31.2809 2.75004 31.2809H30.25C30.8195 31.2809 31.2812 30.8192 31.2812 30.2497C31.2812 29.6801 30.8195 29.2184 30.25 29.2184H28.5312V15.0703ZM12.7188 13.0621C12.7188 10.9738 14.4116 9.2809 16.5 9.2809C18.5883 9.2809 20.2812 10.9738 20.2812 13.0621C20.2812 15.1505 18.5883 16.8434 16.5 16.8434C14.4116 16.8434 12.7188 15.1505 12.7188 13.0621ZM16.5679 18.2184C17.4822 18.2184 18.2698 18.2183 18.9006 18.3031C19.5766 18.394 20.2246 18.599 20.7501 19.1245C21.2758 19.6502 21.4807 20.2981 21.5715 20.9742C21.651 21.5654 21.656 22.2947 21.6562 23.1368C21.6562 23.193 21.6562 23.2497 21.6562 23.3067V29.2184H19.5937V23.3746C19.5937 22.3732 19.5915 21.7259 19.5275 21.2489C19.4674 20.8016 19.3703 20.6615 19.2918 20.583C19.2133 20.5045 19.073 20.4074 18.6257 20.3472C18.1488 20.2831 17.5014 20.2809 16.5 20.2809C15.4986 20.2809 14.8512 20.2831 14.3744 20.3472C13.9271 20.4074 13.7868 20.5045 13.7083 20.583C13.6298 20.6615 13.5327 20.8016 13.4726 21.2489C13.4085 21.7259 13.4063 22.3732 13.4063 23.3746V29.2184H11.3438V23.3067C11.3437 22.3926 11.3437 21.6049 11.4285 20.9742C11.5194 20.2981 11.7243 19.6502 12.2499 19.1245C12.7755 18.599 13.4235 18.394 14.0995 18.3031C14.7302 18.2183 15.518 18.2184 16.4322 18.2184H16.5679Z" fill="#D97B28"/>
<path fill-rule="evenodd" clip-rule="evenodd" d="M14.7812 13.0625C14.7812 12.1133 15.5508 11.3438 16.5 11.3438C17.4493 11.3438 18.2187 12.1133 18.2187 13.0625C18.2187 14.0118 17.4493 14.7812 16.5 14.7812C15.5508 14.7812 14.7812 14.0118 14.7812 13.0625Z" fill="#D97B28"/>
</svg>
