<svg width="64" height="64" viewBox="0 0 64 64" fill="none" xmlns="http://www.w3.org/2000/svg">
<path d="M10.1146 47.1324H25.2499V54.8948H17.3749C17.2121 54.8943 17.0509 54.9259 16.9003 54.9878C16.7498 55.0498 16.6129 55.1408 16.4976 55.2557C16.3824 55.3707 16.2909 55.5072 16.2285 55.6576C16.1661 55.8079 16.1339 55.9691 16.1339 56.1319C16.1339 56.2947 16.1661 56.4558 16.2285 56.6062C16.2909 56.7565 16.3824 56.8931 16.4976 57.008C16.6129 57.1229 16.7498 57.214 16.9003 57.2759C17.0509 57.3378 17.2121 57.3694 17.3749 57.3689H46.6249C46.7877 57.3694 46.949 57.3378 47.0995 57.2759C47.2501 57.214 47.3869 57.1229 47.5022 57.008C47.6175 56.8931 47.709 56.7565 47.7714 56.6062C47.8338 56.4558 47.8659 56.2947 47.8659 56.1319C47.8659 55.9691 47.8338 55.8079 47.7714 55.6576C47.709 55.5072 47.6175 55.3707 47.5022 55.2557C47.3869 55.1408 47.2501 55.0498 47.0995 54.9878C46.949 54.9259 46.7877 54.8943 46.6249 54.8948H38.7499V47.1324H53.8858C55.4148 47.132 56.8904 46.57 58.0323 45.5531C59.1743 44.5363 59.9029 43.1354 60.0799 41.6167H3.91992C4.09713 43.1355 4.82592 44.5363 5.96791 45.5531C7.1099 46.5699 8.58554 47.1319 10.1146 47.1324Z" fill="#D34B0F"/>
<path d="M53.8859 6.63086H10.1147C8.45983 6.63089 6.87276 7.28829 5.7026 8.45845C4.53243 9.62861 3.87503 11.2157 3.875 12.8705V39.1427H60.125V12.8705C60.125 12.0512 59.9637 11.2398 59.6502 10.4828C59.3367 9.72577 58.8771 9.03792 58.2977 8.45851C57.7184 7.8791 57.0306 7.41948 56.2736 7.10589C55.5166 6.7923 54.7052 6.63088 53.8859 6.63086ZM32 34.1368C29.775 34.1368 27.5999 33.477 25.7498 32.2408C23.8998 31.0046 22.4578 29.2476 21.6064 27.192C20.7549 25.1363 20.5321 22.8743 20.9662 20.692C21.4002 18.5097 22.4717 16.5052 24.045 14.9318C25.6184 13.3585 27.6229 12.287 29.8052 11.8529C31.9875 11.4189 34.2495 11.6416 36.3052 12.4931C38.3609 13.3446 40.1179 14.7866 41.354 16.6366C42.5902 18.4867 43.25 20.6617 43.25 22.8868C43.25 24.3641 42.959 25.8271 42.3937 27.192C41.8283 28.5569 40.9997 29.7971 39.955 30.8418C38.9103 31.8864 37.6701 32.7151 36.3052 33.2805C34.9403 33.8458 33.4774 34.1368 32 34.1368Z" fill="#D34B0F"/>
<path d="M36.49 18.3967C36.3752 18.2818 36.2389 18.1906 36.0888 18.1284C35.9388 18.0662 35.7779 18.0342 35.6155 18.0342C35.453 18.0342 35.2922 18.0662 35.1421 18.1284C34.9921 18.1906 34.8558 18.2818 34.741 18.3967L31.9999 21.1378L29.2588 18.3967C29.144 18.2815 29.0077 18.19 28.8575 18.1276C28.7074 18.0651 28.5464 18.0329 28.3838 18.0327C28.2211 18.0325 28.0601 18.0645 27.9098 18.1266C27.7595 18.1888 27.623 18.28 27.508 18.3949C27.393 18.5099 27.3018 18.6465 27.2397 18.7968C27.1775 18.947 27.1456 19.1081 27.1458 19.2707C27.1459 19.4333 27.1782 19.5943 27.2406 19.7445C27.3031 19.8946 27.3945 20.031 27.5098 20.1458L30.2509 22.8868L27.5098 25.6279C27.3945 25.7427 27.3031 25.879 27.2406 26.0292C27.1782 26.1793 27.1459 26.3403 27.1458 26.503C27.1456 26.6656 27.1775 26.8267 27.2397 26.9769C27.3018 27.1272 27.393 27.2637 27.508 27.3787C27.623 27.4937 27.7595 27.5849 27.9098 27.6471C28.0601 27.7092 28.2211 27.7411 28.3838 27.741C28.5464 27.7408 28.7074 27.7086 28.8575 27.6461C29.0077 27.5836 29.144 27.4922 29.2588 27.377L31.9999 24.6359L34.741 27.377C34.8557 27.4922 34.9921 27.5836 35.1422 27.6461C35.2924 27.7086 35.4534 27.7408 35.616 27.741C35.7786 27.7411 35.9397 27.7092 36.09 27.6471C36.2402 27.5849 36.3768 27.4937 36.4918 27.3787C36.6068 27.2637 36.698 27.1272 36.7601 26.9769C36.8223 26.8267 36.8542 26.6656 36.854 26.503C36.8538 26.3403 36.8216 26.1793 36.7591 26.0292C36.6967 25.879 36.6052 25.7427 36.49 25.6279L33.7489 22.8868L36.49 20.1458C36.6049 20.031 36.6961 19.8946 36.7583 19.7446C36.8205 19.5945 36.8525 19.4337 36.8525 19.2712C36.8525 19.1088 36.8205 18.948 36.7583 18.7979C36.6961 18.6478 36.6049 18.5115 36.49 18.3967Z" fill="#D34B0F"/>
</svg>
