<svg width="24" height="24" viewBox="0 0 24 24" fill="none" xmlns="http://www.w3.org/2000/svg">
<g clip-path="url(#clip0_506_2079)">
<path d="M7.78294 12.3302C7.78294 11.9726 7.49298 11.6826 7.13534 11.6826H4.54494C4.1873 11.6826 3.89734 11.9726 3.89734 12.3302V14.9206C3.89734 15.2783 4.1873 15.5682 4.54494 15.5682H7.13534C7.49298 15.5682 7.78294 15.2783 7.78294 14.9206V12.3302ZM5.19254 12.9778H6.48774V14.273H5.19254V12.9778Z" fill="#545454"/>
<path d="M13.2066 12.3302C13.2066 11.9726 12.9167 11.6826 12.559 11.6826H9.96865C9.61101 11.6826 9.32104 11.9726 9.32104 12.3302V14.9206C9.32104 15.2783 9.61101 15.5682 9.96865 15.5682H12.559C12.9167 15.5682 13.2066 15.2783 13.2066 14.9206V12.3302ZM10.6162 12.9778H11.9114V14.273H10.6162V12.9778Z" fill="#545454"/>
<path d="M18.6302 12.3302C18.6302 11.9726 18.3403 11.6826 17.9826 11.6826H15.3922C15.0346 11.6826 14.7446 11.9726 14.7446 12.3302V14.9206C14.7446 15.2783 15.0346 15.5682 15.3922 15.5682H17.9826C18.3403 15.5682 18.6302 15.2783 18.6302 14.9206V12.3302ZM16.0398 12.9778H17.335V14.273H16.0398V12.9778Z" fill="#545454"/>
<path d="M23.3523 17.6726H21.3016V10.3871H22.0419C22.2309 10.3871 22.4104 10.309 22.5334 10.1657C22.6412 10.04 22.6962 9.88067 22.6888 9.71707C22.688 9.69109 22.686 9.66607 22.682 9.64009L21.4256 1.4647C21.3771 1.14875 21.1052 0.916016 20.7856 0.916016H1.95788C1.63975 0.916016 1.36881 1.14705 1.31846 1.46113L0.00811835 9.63709C0.00390894 9.66332 0.00180424 9.68955 0.000832839 9.71594C-0.00750502 9.88002 0.0469744 10.0378 0.154719 10.1642C0.277763 10.3084 0.457877 10.3872 0.647543 10.3872H1.22609V20.344C1.22609 20.7017 1.54301 20.9916 1.90065 20.9916H3.4217C3.67767 22.1877 4.7424 23.0875 6.0138 23.0875C7.28521 23.0875 8.34994 22.1878 8.60599 20.9916H14.0532C14.3092 22.1877 15.3739 23.0875 16.6453 23.0875C17.9167 23.0875 18.9814 22.1878 19.2374 20.9916H20.681C21.0386 20.9916 21.3016 20.7017 21.3016 20.344V18.9679H23.3523C23.71 18.9679 23.9999 18.6779 23.9999 18.3203C23.9999 17.9626 23.71 17.6726 23.3523 17.6726ZM18.0011 20.4363C18.0011 21.184 17.3929 21.7922 16.6452 21.7922C15.8976 21.7922 15.2893 21.184 15.2893 20.4363C15.2893 19.6887 15.8976 19.0804 16.6452 19.0804C17.3929 19.0804 18.0011 19.6886 18.0011 20.4363ZM7.36964 20.4363C7.36964 21.184 6.76138 21.7922 6.01372 21.7922C5.26607 21.7922 4.65781 21.184 4.65781 20.4363C4.65781 19.6887 5.26607 19.0804 6.01372 19.0804C6.76146 19.0804 7.36964 19.6886 7.36964 20.4363ZM2.52121 10.3871H20.0064V19.6964H19.1905C18.8694 18.5936 17.8502 17.7852 16.6453 17.7852C15.4403 17.7852 14.4211 18.5936 14.1001 19.6964H8.55912C8.23799 18.5936 7.21883 17.7852 6.01389 17.7852C4.80886 17.7852 3.7897 18.5936 3.46865 19.6964H2.52121V10.3871ZM20.2299 2.21114L20.449 3.66824H2.28152L2.50996 2.21114H20.2299ZM21.2871 9.09189H1.4071L1.6731 7.47289H21.0322L21.2871 9.09189ZM20.8332 6.17769H1.88074L2.07534 4.96344H20.6466L20.8332 6.17769Z" fill="#545454"/>
</g>
<defs>
<clipPath id="clip0_506_2079">
<rect width="24" height="24" fill="white"/>
</clipPath>
</defs>
</svg>
