<svg width="24" height="26" viewBox="0 0 24 26" fill="none" xmlns="http://www.w3.org/2000/svg">
<path d="M3.82036 24.8787H20.1795V17.0428H3.82036V24.8787ZM13.7765 18.2445C13.9556 18.2445 14.1136 18.3445 14.1926 18.4868C14.2031 18.5025 14.2136 18.5184 14.2294 18.5342C14.3242 18.629 14.4769 18.629 14.5665 18.5342C14.5822 18.5184 14.5928 18.5025 14.6033 18.4868C14.5454 18.8923 14.1978 19.203 13.7764 19.203C13.5131 19.203 13.2972 18.9871 13.2972 18.7238C13.2972 18.4605 13.5132 18.2445 13.7765 18.2445ZM12.7443 19.8401C12.7865 19.5505 13.034 19.324 13.3394 19.324H14.2559C14.556 19.324 14.8088 19.5505 14.851 19.8401L15.0353 21.3672C15.0511 21.4831 14.9668 21.5884 14.851 21.599C14.7351 21.6147 14.6298 21.5305 14.6193 21.4146L14.4455 19.9981C14.4402 19.9718 14.4139 19.9507 14.3876 19.9507C14.356 19.9507 14.3297 19.977 14.3297 20.0086C14.3297 20.0139 14.3297 20.0191 14.3297 20.0191C14.3297 20.0191 14.4509 21.0249 14.4561 21.0459C14.4614 21.0723 14.4614 21.0986 14.4614 21.1249V23.6789C14.4614 23.8579 14.3297 24.0054 14.1612 24.0054C13.9979 24.0054 13.8611 23.8579 13.8611 23.6789V21.5989C13.8611 21.5672 13.8347 21.541 13.8032 21.541C13.7715 21.541 13.7453 21.5673 13.7453 21.5989V23.6736C13.7453 23.8527 13.6136 24.0001 13.4451 24.0001C13.2818 24.0001 13.145 23.8527 13.145 23.6736V21.1197C13.145 21.0934 13.145 21.067 13.1503 21.0408C13.1503 21.0197 13.2767 20.0139 13.2767 20.0139C13.2767 20.0139 13.2767 20.0086 13.2767 20.0034C13.2767 19.9718 13.2503 19.9455 13.2188 19.9455C13.1872 19.9455 13.1661 19.9666 13.1609 19.9929L12.9924 21.4094C12.9713 21.5306 12.866 21.6148 12.7501 21.599C12.6342 21.5832 12.5553 21.4831 12.5658 21.3672L12.7443 19.8401ZM11.9506 21.7621C12.1048 21.7621 12.2297 21.8871 12.2297 22.0412C12.2297 22.1953 12.1047 22.3203 11.9506 22.3203C11.7964 22.3203 11.6715 22.1953 11.6715 22.0412C11.6715 21.8871 11.7964 21.7621 11.9506 21.7621ZM11.4081 22.6732C11.3923 22.5257 11.5081 22.3993 11.6556 22.3941H12.2454C12.3929 22.3994 12.514 22.5257 12.514 22.6732V23.0576C12.514 23.1155 12.4666 23.1576 12.4087 23.1576C12.3508 23.1576 12.3034 23.1102 12.3034 23.0576V22.7364C12.3034 22.7154 12.2877 22.7048 12.2666 22.7048C12.2455 22.7048 12.235 22.7206 12.235 22.7364V23.8791C12.235 23.9476 12.1823 24.0003 12.1138 24.0003C12.0453 24.0003 11.9926 23.9476 11.9926 23.8791V23.2998C11.9926 23.2788 11.9768 23.2682 11.961 23.2682C11.9399 23.2682 11.9293 23.284 11.9293 23.2998V23.8791C11.9293 23.9476 11.8766 24.0003 11.8081 24.0003C11.7397 24.0003 11.687 23.9476 11.687 23.8791V22.7364C11.687 22.7154 11.6712 22.7048 11.6553 22.7048C11.6343 22.7048 11.6185 22.7206 11.6185 22.7364V23.0576C11.6185 23.1155 11.5711 23.1576 11.5132 23.1576C11.4553 23.1576 11.4079 23.1102 11.4079 23.0576L11.4081 22.6732ZM10.1585 18.2182C10.4232 18.2182 10.6377 18.4327 10.6377 18.6974C10.6377 18.962 10.4232 19.1765 10.1585 19.1765C9.89383 19.1765 9.6793 18.962 9.6793 18.6974C9.6793 18.4327 9.89383 18.2182 10.1585 18.2182ZM9.55283 19.303H10.7536C11.0854 19.303 11.354 19.5715 11.354 19.9033V21.3725C11.354 21.4884 11.2592 21.5831 11.1433 21.5831C11.0222 21.5831 10.9327 21.4883 10.9327 21.3725V20.0244C10.9327 19.9927 10.9063 19.9665 10.8748 19.9665C10.8431 19.9665 10.8169 19.9928 10.8169 20.0244V23.6736C10.8169 23.8527 10.6852 24.0001 10.5167 24.0001C10.3483 24.0001 10.2166 23.8527 10.2166 23.6736V21.5936C10.2166 21.5619 10.1903 21.5357 10.1587 21.5357C10.1271 21.5357 10.1008 21.562 10.1008 21.5936V23.6736C10.1008 23.8527 9.96916 24.0001 9.80067 24.0001C9.63218 24.0001 9.50052 23.8527 9.50052 23.6736V20.0244C9.50052 19.9927 9.47417 19.9665 9.44263 19.9665C9.41108 19.9665 9.38473 19.9928 9.38473 20.0244V21.3777C9.38473 21.4936 9.28991 21.5883 9.17412 21.5883C9.05295 21.5883 8.96341 21.4935 8.96341 21.3777V19.9033C8.95254 19.5715 9.22633 19.303 9.55283 19.303ZM21.9782 12.9217L23.8281 10.9415L18.6122 6.19429V0.685497H15.5755V3.40179L12.0464 0.177734L0.189697 10.7892L1.99234 12.8201L3.82036 11.17V15.3777H20.1795V11.2716L21.9782 12.9217ZM13.5806 8.74358C13.7597 8.74358 13.9177 8.84359 13.9966 8.98581C14.0072 9.00158 14.0177 9.01744 14.0335 9.03321C14.1283 9.12803 14.281 9.12803 14.3706 9.03321C14.3863 9.01744 14.3969 9.00158 14.4074 8.98581C14.3495 9.39131 14.0018 9.702 13.5805 9.702C13.3172 9.702 13.1013 9.48612 13.1013 9.22284C13.1013 8.95956 13.3173 8.74358 13.5806 8.74358ZM11.7547 12.2612C11.9088 12.2612 12.0337 12.3862 12.0337 12.5402C12.0337 12.6943 11.9087 12.8193 11.7547 12.8193C11.6005 12.8193 11.4756 12.6943 11.4756 12.5402C11.4756 12.3862 11.6005 12.2612 11.7547 12.2612ZM9.96259 8.71723C10.2273 8.71723 10.4418 8.93174 10.4418 9.19639C10.4418 9.46105 10.2273 9.67556 9.96259 9.67556C9.69791 9.67556 9.48338 9.46105 9.48338 9.19639C9.48338 8.93174 9.69791 8.71723 9.96259 8.71723ZM11.1581 11.8715C11.1581 11.9873 11.0633 12.082 10.9474 12.082C10.8263 12.082 10.7368 11.9872 10.7368 11.8715V10.5234C10.7368 10.4918 10.7104 10.4655 10.6789 10.4655C10.6472 10.4655 10.621 10.4919 10.621 10.5234V14.1726C10.621 14.3517 10.4893 14.4991 10.3208 14.4991C10.1523 14.4991 10.0207 14.3517 10.0207 14.1726V12.0926C10.0207 12.061 9.99433 12.0347 9.96279 12.0347C9.93115 12.0347 9.9049 12.0611 9.9049 12.0926V14.1726C9.9049 14.3517 9.77324 14.4991 9.60475 14.4991C9.43626 14.4991 9.3046 14.3517 9.3046 14.1726V10.5234C9.3046 10.4918 9.27825 10.4655 9.24671 10.4655C9.21517 10.4655 9.18881 10.4919 9.18881 10.5234V11.8767C9.18881 11.9926 9.09399 12.0873 8.9782 12.0873C8.85703 12.0873 8.76749 11.9925 8.76749 11.8767V10.4023C8.75691 10.0706 9.03081 9.80201 9.3573 9.80201H10.5581C10.8899 9.80201 11.1585 10.0706 11.1585 10.4023L11.1581 11.8715ZM12.3181 13.5566C12.3181 13.6144 12.2707 13.6566 12.2128 13.6566C12.1549 13.6566 12.1075 13.6091 12.1075 13.5566V13.2354C12.1075 13.2143 12.0917 13.2037 12.0707 13.2037C12.0496 13.2037 12.039 13.2195 12.039 13.2354V14.378C12.039 14.4465 11.9863 14.4992 11.9179 14.4992C11.8494 14.4992 11.7967 14.4465 11.7967 14.378V13.7988C11.7967 13.7777 11.7809 13.7671 11.765 13.7671C11.744 13.7671 11.7334 13.7829 11.7334 13.7988V14.378C11.7334 14.4465 11.6807 14.4992 11.6122 14.4992C11.5438 14.4992 11.4911 14.4465 11.4911 14.378V13.2354C11.4911 13.2143 11.4753 13.2037 11.4594 13.2037C11.4383 13.2037 11.4226 13.2195 11.4226 13.2354V13.5566C11.4226 13.6144 11.3752 13.6566 11.3173 13.6566C11.2594 13.6566 11.212 13.6091 11.212 13.5566V13.1721C11.1962 13.0247 11.312 12.8982 11.4595 12.8931H12.0493C12.1967 12.8983 12.3179 13.0247 12.3179 13.1721L12.3181 13.5566ZM14.655 12.0979C14.5391 12.1137 14.4338 12.0294 14.4234 11.9136L14.2496 10.497C14.2443 10.4707 14.2179 10.4496 14.1917 10.4496C14.16 10.4496 14.1338 10.476 14.1338 10.5075C14.1338 10.5128 14.1338 10.518 14.1338 10.518C14.1338 10.518 14.255 11.5238 14.2602 11.5449C14.2654 11.5712 14.2655 11.5976 14.2655 11.6238V14.1778C14.2655 14.3569 14.1338 14.5043 13.9653 14.5043C13.802 14.5043 13.6652 14.3569 13.6652 14.1778V12.0978C13.6652 12.0662 13.6388 12.0399 13.6073 12.0399C13.5756 12.0399 13.5494 12.0663 13.5494 12.0978V14.1725C13.5494 14.3516 13.4177 14.499 13.2492 14.499C13.0859 14.499 12.9491 14.3516 12.9491 14.1725V11.6186C12.9491 11.5923 12.9491 11.566 12.9544 11.5397C12.9544 11.5186 13.0807 10.5128 13.0807 10.5128C13.0807 10.5128 13.0807 10.5075 13.0807 10.5023C13.0807 10.4707 13.0544 10.4444 13.0228 10.4444C12.9913 10.4444 12.9701 10.4655 12.9649 10.4919L12.7965 11.9084C12.7754 12.0295 12.6701 12.1138 12.5542 12.0979C12.4383 12.0821 12.3594 11.982 12.3698 11.8662L12.5489 10.3391C12.591 10.0494 12.8386 9.82297 13.144 9.82297H14.0604C14.3606 9.82297 14.6134 10.0494 14.6555 10.3391L14.8399 11.8662C14.8552 11.982 14.7709 12.0874 14.655 12.0979Z" fill="#545454"/>
<path d="M3.82036 24.8787H20.1795V17.0428H3.82036V24.8787ZM13.7765 18.2445C13.9556 18.2445 14.1136 18.3445 14.1926 18.4868C14.2031 18.5025 14.2136 18.5184 14.2294 18.5342C14.3242 18.629 14.4769 18.629 14.5665 18.5342C14.5822 18.5184 14.5928 18.5025 14.6033 18.4868C14.5454 18.8923 14.1978 19.203 13.7764 19.203C13.5131 19.203 13.2972 18.9871 13.2972 18.7238C13.2972 18.4605 13.5132 18.2445 13.7765 18.2445ZM12.7443 19.8401C12.7865 19.5505 13.034 19.324 13.3394 19.324H14.2559C14.556 19.324 14.8088 19.5505 14.851 19.8401L15.0353 21.3672C15.0511 21.4831 14.9668 21.5884 14.851 21.599C14.7351 21.6147 14.6298 21.5305 14.6193 21.4146L14.4455 19.9981C14.4402 19.9718 14.4139 19.9507 14.3876 19.9507C14.356 19.9507 14.3297 19.977 14.3297 20.0086C14.3297 20.0139 14.3297 20.0191 14.3297 20.0191C14.3297 20.0191 14.4509 21.0249 14.4561 21.0459C14.4614 21.0723 14.4614 21.0986 14.4614 21.1249V23.6789C14.4614 23.8579 14.3297 24.0054 14.1612 24.0054C13.9979 24.0054 13.8611 23.8579 13.8611 23.6789V21.5989C13.8611 21.5672 13.8347 21.541 13.8032 21.541C13.7715 21.541 13.7453 21.5673 13.7453 21.5989V23.6736C13.7453 23.8527 13.6136 24.0001 13.4451 24.0001C13.2818 24.0001 13.145 23.8527 13.145 23.6736V21.1197C13.145 21.0934 13.145 21.067 13.1503 21.0408C13.1503 21.0197 13.2767 20.0139 13.2767 20.0139C13.2767 20.0139 13.2767 20.0086 13.2767 20.0034C13.2767 19.9718 13.2503 19.9455 13.2188 19.9455C13.1872 19.9455 13.1661 19.9666 13.1609 19.9929L12.9924 21.4094C12.9713 21.5306 12.866 21.6148 12.7501 21.599C12.6342 21.5832 12.5553 21.4831 12.5658 21.3672L12.7443 19.8401ZM11.9506 21.7621C12.1048 21.7621 12.2297 21.8871 12.2297 22.0412C12.2297 22.1953 12.1047 22.3203 11.9506 22.3203C11.7964 22.3203 11.6715 22.1953 11.6715 22.0412C11.6715 21.8871 11.7964 21.7621 11.9506 21.7621ZM11.4081 22.6732C11.3923 22.5257 11.5081 22.3993 11.6556 22.3941H12.2454C12.3929 22.3994 12.514 22.5257 12.514 22.6732V23.0576C12.514 23.1155 12.4666 23.1576 12.4087 23.1576C12.3508 23.1576 12.3034 23.1102 12.3034 23.0576V22.7364C12.3034 22.7154 12.2877 22.7048 12.2666 22.7048C12.2455 22.7048 12.235 22.7206 12.235 22.7364V23.8791C12.235 23.9476 12.1823 24.0003 12.1138 24.0003C12.0453 24.0003 11.9926 23.9476 11.9926 23.8791V23.2998C11.9926 23.2788 11.9768 23.2682 11.961 23.2682C11.9399 23.2682 11.9293 23.284 11.9293 23.2998V23.8791C11.9293 23.9476 11.8766 24.0003 11.8081 24.0003C11.7397 24.0003 11.687 23.9476 11.687 23.8791V22.7364C11.687 22.7154 11.6712 22.7048 11.6553 22.7048C11.6343 22.7048 11.6185 22.7206 11.6185 22.7364V23.0576C11.6185 23.1155 11.5711 23.1576 11.5132 23.1576C11.4553 23.1576 11.4079 23.1102 11.4079 23.0576L11.4081 22.6732ZM10.1585 18.2182C10.4232 18.2182 10.6377 18.4327 10.6377 18.6974C10.6377 18.962 10.4232 19.1765 10.1585 19.1765C9.89383 19.1765 9.6793 18.962 9.6793 18.6974C9.6793 18.4327 9.89383 18.2182 10.1585 18.2182ZM9.55283 19.303H10.7536C11.0854 19.303 11.354 19.5715 11.354 19.9033V21.3725C11.354 21.4884 11.2592 21.5831 11.1433 21.5831C11.0222 21.5831 10.9327 21.4883 10.9327 21.3725V20.0244C10.9327 19.9927 10.9063 19.9665 10.8748 19.9665C10.8431 19.9665 10.8169 19.9928 10.8169 20.0244V23.6736C10.8169 23.8527 10.6852 24.0001 10.5167 24.0001C10.3483 24.0001 10.2166 23.8527 10.2166 23.6736V21.5936C10.2166 21.5619 10.1903 21.5357 10.1587 21.5357C10.1271 21.5357 10.1008 21.562 10.1008 21.5936V23.6736C10.1008 23.8527 9.96916 24.0001 9.80067 24.0001C9.63218 24.0001 9.50052 23.8527 9.50052 23.6736V20.0244C9.50052 19.9927 9.47417 19.9665 9.44263 19.9665C9.41108 19.9665 9.38473 19.9928 9.38473 20.0244V21.3777C9.38473 21.4936 9.28991 21.5883 9.17412 21.5883C9.05295 21.5883 8.96341 21.4935 8.96341 21.3777V19.9033C8.95254 19.5715 9.22633 19.303 9.55283 19.303ZM21.9782 12.9217L23.8281 10.9415L18.6122 6.19429V0.685497H15.5755V3.40179L12.0464 0.177734L0.189697 10.7892L1.99234 12.8201L3.82036 11.17V15.3777H20.1795V11.2716L21.9782 12.9217ZM13.5806 8.74358C13.7597 8.74358 13.9177 8.84359 13.9966 8.98581C14.0072 9.00158 14.0177 9.01744 14.0335 9.03321C14.1283 9.12803 14.281 9.12803 14.3706 9.03321C14.3863 9.01744 14.3969 9.00158 14.4074 8.98581C14.3495 9.39131 14.0018 9.702 13.5805 9.702C13.3172 9.702 13.1013 9.48612 13.1013 9.22284C13.1013 8.95956 13.3173 8.74358 13.5806 8.74358ZM11.7547 12.2612C11.9088 12.2612 12.0337 12.3862 12.0337 12.5402C12.0337 12.6943 11.9087 12.8193 11.7547 12.8193C11.6005 12.8193 11.4756 12.6943 11.4756 12.5402C11.4756 12.3862 11.6005 12.2612 11.7547 12.2612ZM9.96259 8.71723C10.2273 8.71723 10.4418 8.93174 10.4418 9.19639C10.4418 9.46105 10.2273 9.67556 9.96259 9.67556C9.69791 9.67556 9.48338 9.46105 9.48338 9.19639C9.48338 8.93174 9.69791 8.71723 9.96259 8.71723ZM11.1581 11.8715C11.1581 11.9873 11.0633 12.082 10.9474 12.082C10.8263 12.082 10.7368 11.9872 10.7368 11.8715V10.5234C10.7368 10.4918 10.7104 10.4655 10.6789 10.4655C10.6472 10.4655 10.621 10.4919 10.621 10.5234V14.1726C10.621 14.3517 10.4893 14.4991 10.3208 14.4991C10.1523 14.4991 10.0207 14.3517 10.0207 14.1726V12.0926C10.0207 12.061 9.99433 12.0347 9.96279 12.0347C9.93115 12.0347 9.9049 12.0611 9.9049 12.0926V14.1726C9.9049 14.3517 9.77324 14.4991 9.60475 14.4991C9.43626 14.4991 9.3046 14.3517 9.3046 14.1726V10.5234C9.3046 10.4918 9.27825 10.4655 9.24671 10.4655C9.21517 10.4655 9.18881 10.4919 9.18881 10.5234V11.8767C9.18881 11.9926 9.09399 12.0873 8.9782 12.0873C8.85703 12.0873 8.76749 11.9925 8.76749 11.8767V10.4023C8.75691 10.0706 9.03081 9.80201 9.3573 9.80201H10.5581C10.8899 9.80201 11.1585 10.0706 11.1585 10.4023L11.1581 11.8715ZM12.3181 13.5566C12.3181 13.6144 12.2707 13.6566 12.2128 13.6566C12.1549 13.6566 12.1075 13.6091 12.1075 13.5566V13.2354C12.1075 13.2143 12.0917 13.2037 12.0707 13.2037C12.0496 13.2037 12.039 13.2195 12.039 13.2354V14.378C12.039 14.4465 11.9863 14.4992 11.9179 14.4992C11.8494 14.4992 11.7967 14.4465 11.7967 14.378V13.7988C11.7967 13.7777 11.7809 13.7671 11.765 13.7671C11.744 13.7671 11.7334 13.7829 11.7334 13.7988V14.378C11.7334 14.4465 11.6807 14.4992 11.6122 14.4992C11.5438 14.4992 11.4911 14.4465 11.4911 14.378V13.2354C11.4911 13.2143 11.4753 13.2037 11.4594 13.2037C11.4383 13.2037 11.4226 13.2195 11.4226 13.2354V13.5566C11.4226 13.6144 11.3752 13.6566 11.3173 13.6566C11.2594 13.6566 11.212 13.6091 11.212 13.5566V13.1721C11.1962 13.0247 11.312 12.8982 11.4595 12.8931H12.0493C12.1967 12.8983 12.3179 13.0247 12.3179 13.1721L12.3181 13.5566ZM14.655 12.0979C14.5391 12.1137 14.4338 12.0294 14.4234 11.9136L14.2496 10.497C14.2443 10.4707 14.2179 10.4496 14.1917 10.4496C14.16 10.4496 14.1338 10.476 14.1338 10.5075C14.1338 10.5128 14.1338 10.518 14.1338 10.518C14.1338 10.518 14.255 11.5238 14.2602 11.5449C14.2654 11.5712 14.2655 11.5976 14.2655 11.6238V14.1778C14.2655 14.3569 14.1338 14.5043 13.9653 14.5043C13.802 14.5043 13.6652 14.3569 13.6652 14.1778V12.0978C13.6652 12.0662 13.6388 12.0399 13.6073 12.0399C13.5756 12.0399 13.5494 12.0663 13.5494 12.0978V14.1725C13.5494 14.3516 13.4177 14.499 13.2492 14.499C13.0859 14.499 12.9491 14.3516 12.9491 14.1725V11.6186C12.9491 11.5923 12.9491 11.566 12.9544 11.5397C12.9544 11.5186 13.0807 10.5128 13.0807 10.5128C13.0807 10.5128 13.0807 10.5075 13.0807 10.5023C13.0807 10.4707 13.0544 10.4444 13.0228 10.4444C12.9913 10.4444 12.9701 10.4655 12.9649 10.4919L12.7965 11.9084C12.7754 12.0295 12.6701 12.1138 12.5542 12.0979C12.4383 12.0821 12.3594 11.982 12.3698 11.8662L12.5489 10.3391C12.591 10.0494 12.8386 9.82297 13.144 9.82297H14.0604C14.3606 9.82297 14.6134 10.0494 14.6555 10.3391L14.8399 11.8662C14.8552 11.982 14.7709 12.0874 14.655 12.0979Z" fill="#545454"/>
<path d="M3.82056 24.8788H20.1797V17.043H3.82056V24.8788ZM13.7767 18.2447C13.9558 18.2447 14.1138 18.3447 14.1928 18.4869C14.2033 18.5027 14.2138 18.5186 14.2296 18.5343C14.3244 18.6291 14.4771 18.6291 14.5667 18.5343C14.5824 18.5186 14.593 18.5027 14.6035 18.4869C14.5456 18.8924 14.198 19.2031 13.7766 19.2031C13.5133 19.2031 13.2974 18.9872 13.2974 18.724C13.2974 18.4607 13.5134 18.2447 13.7767 18.2447ZM12.7445 19.8403C12.7867 19.5506 13.0342 19.3242 13.3396 19.3242H14.2561C14.5562 19.3242 14.809 19.5506 14.8512 19.8403L15.0355 21.3674C15.0513 21.4832 14.967 21.5885 14.8512 21.5991C14.7353 21.6149 14.63 21.5307 14.6195 21.4148L14.4457 19.9983C14.4404 19.9719 14.4141 19.9508 14.3878 19.9508C14.3562 19.9508 14.3299 19.9772 14.3299 20.0087C14.3299 20.014 14.3299 20.0192 14.3299 20.0192C14.3299 20.0192 14.4511 21.025 14.4563 21.0461C14.4616 21.0725 14.4616 21.0988 14.4616 21.125V23.679C14.4616 23.8581 14.3299 24.0055 14.1614 24.0055C13.9981 24.0055 13.8613 23.8581 13.8613 23.679V21.599C13.8613 21.5674 13.8349 21.5411 13.8034 21.5411C13.7717 21.5411 13.7455 21.5675 13.7455 21.599V23.6738C13.7455 23.8528 13.6138 24.0002 13.4453 24.0002C13.282 24.0002 13.1452 23.8528 13.1452 23.6738V21.1199C13.1452 21.0935 13.1452 21.0672 13.1505 21.0409C13.1505 21.0199 13.2769 20.014 13.2769 20.014C13.2769 20.014 13.2769 20.0087 13.2769 20.0035C13.2769 19.9719 13.2505 19.9457 13.219 19.9457C13.1874 19.9457 13.1663 19.9667 13.1611 19.9931L12.9926 21.4096C12.9715 21.5307 12.8662 21.615 12.7503 21.5991C12.6344 21.5833 12.5555 21.4832 12.566 21.3674L12.7445 19.8403ZM11.9508 21.7623C12.105 21.7623 12.2299 21.8873 12.2299 22.0414C12.2299 22.1954 12.1049 22.3204 11.9508 22.3204C11.7966 22.3204 11.6717 22.1954 11.6717 22.0414C11.6717 21.8873 11.7966 21.7623 11.9508 21.7623ZM11.4083 22.6733C11.3925 22.5259 11.5083 22.3995 11.6558 22.3943H12.2456C12.3931 22.3995 12.5142 22.5259 12.5142 22.6733V23.0578C12.5142 23.1156 12.4668 23.1578 12.4089 23.1578C12.351 23.1578 12.3036 23.1104 12.3036 23.0578V22.7366C12.3036 22.7155 12.2879 22.705 12.2668 22.705C12.2457 22.705 12.2352 22.7207 12.2352 22.7366V23.8793C12.2352 23.9477 12.1825 24.0004 12.114 24.0004C12.0455 24.0004 11.9928 23.9477 11.9928 23.8793V23.3C11.9928 23.2789 11.977 23.2683 11.9612 23.2683C11.9401 23.2683 11.9295 23.2841 11.9295 23.3V23.8793C11.9295 23.9477 11.8768 24.0004 11.8083 24.0004C11.7399 24.0004 11.6872 23.9477 11.6872 23.8793V22.7366C11.6872 22.7155 11.6714 22.705 11.6555 22.705C11.6345 22.705 11.6187 22.7207 11.6187 22.7366V23.0578C11.6187 23.1156 11.5713 23.1578 11.5134 23.1578C11.4555 23.1578 11.4081 23.1104 11.4081 23.0578L11.4083 22.6733ZM10.1587 18.2183C10.4234 18.2183 10.6379 18.4329 10.6379 18.6975C10.6379 18.9622 10.4234 19.1767 10.1587 19.1767C9.89403 19.1767 9.6795 18.9622 9.6795 18.6975C9.6795 18.4329 9.89403 18.2183 10.1587 18.2183ZM9.55303 19.3031H10.7538C11.0856 19.3031 11.3542 19.5717 11.3542 19.9034V21.3727C11.3542 21.4885 11.2594 21.5833 11.1435 21.5833C11.0224 21.5833 10.9329 21.4884 10.9329 21.3727V20.0245C10.9329 19.9929 10.9065 19.9666 10.875 19.9666C10.8433 19.9666 10.8171 19.993 10.8171 20.0245V23.6738C10.8171 23.8528 10.6854 24.0002 10.5169 24.0002C10.3485 24.0002 10.2168 23.8528 10.2168 23.6738V21.5937C10.2168 21.5621 10.1905 21.5358 10.1589 21.5358C10.1273 21.5358 10.101 21.5622 10.101 21.5937V23.6738C10.101 23.8528 9.96936 24.0002 9.80087 24.0002C9.63238 24.0002 9.50072 23.8528 9.50072 23.6738V20.0245C9.50072 19.9929 9.47437 19.9666 9.44283 19.9666C9.41128 19.9666 9.38493 19.993 9.38493 20.0245V21.3779C9.38493 21.4937 9.29011 21.5884 9.17432 21.5884C9.05314 21.5884 8.96361 21.4936 8.96361 21.3779V19.9034C8.95274 19.5717 9.22653 19.3031 9.55303 19.3031Z" fill="#545454"/>
<path d="M3.82056 24.8788H20.1797V17.043H3.82056V24.8788ZM13.7767 18.2447C13.9558 18.2447 14.1138 18.3447 14.1928 18.4869C14.2033 18.5027 14.2138 18.5186 14.2296 18.5343C14.3244 18.6291 14.4771 18.6291 14.5667 18.5343C14.5824 18.5186 14.593 18.5027 14.6035 18.4869C14.5456 18.8924 14.198 19.2031 13.7766 19.2031C13.5133 19.2031 13.2974 18.9872 13.2974 18.724C13.2974 18.4607 13.5134 18.2447 13.7767 18.2447ZM12.7445 19.8403C12.7867 19.5506 13.0342 19.3242 13.3396 19.3242H14.2561C14.5562 19.3242 14.809 19.5506 14.8512 19.8403L15.0355 21.3674C15.0513 21.4832 14.967 21.5885 14.8512 21.5991C14.7353 21.6149 14.63 21.5307 14.6195 21.4148L14.4457 19.9983C14.4404 19.9719 14.4141 19.9508 14.3878 19.9508C14.3562 19.9508 14.3299 19.9772 14.3299 20.0087C14.3299 20.014 14.3299 20.0192 14.3299 20.0192C14.3299 20.0192 14.4511 21.025 14.4563 21.0461C14.4616 21.0725 14.4616 21.0988 14.4616 21.125V23.679C14.4616 23.8581 14.3299 24.0055 14.1614 24.0055C13.9981 24.0055 13.8613 23.8581 13.8613 23.679V21.599C13.8613 21.5674 13.8349 21.5411 13.8034 21.5411C13.7717 21.5411 13.7455 21.5675 13.7455 21.599V23.6738C13.7455 23.8528 13.6138 24.0002 13.4453 24.0002C13.282 24.0002 13.1452 23.8528 13.1452 23.6738V21.1199C13.1452 21.0935 13.1452 21.0672 13.1505 21.0409C13.1505 21.0199 13.2769 20.014 13.2769 20.014C13.2769 20.014 13.2769 20.0087 13.2769 20.0035C13.2769 19.9719 13.2505 19.9457 13.219 19.9457C13.1874 19.9457 13.1663 19.9667 13.1611 19.9931L12.9926 21.4096C12.9715 21.5307 12.8662 21.615 12.7503 21.5991C12.6344 21.5833 12.5555 21.4832 12.566 21.3674L12.7445 19.8403ZM11.9508 21.7623C12.105 21.7623 12.2299 21.8873 12.2299 22.0414C12.2299 22.1954 12.1049 22.3204 11.9508 22.3204C11.7966 22.3204 11.6717 22.1954 11.6717 22.0414C11.6717 21.8873 11.7966 21.7623 11.9508 21.7623ZM11.4083 22.6733C11.3925 22.5259 11.5083 22.3995 11.6558 22.3943H12.2456C12.3931 22.3995 12.5142 22.5259 12.5142 22.6733V23.0578C12.5142 23.1156 12.4668 23.1578 12.4089 23.1578C12.351 23.1578 12.3036 23.1104 12.3036 23.0578V22.7366C12.3036 22.7155 12.2879 22.705 12.2668 22.705C12.2457 22.705 12.2352 22.7207 12.2352 22.7366V23.8793C12.2352 23.9477 12.1825 24.0004 12.114 24.0004C12.0455 24.0004 11.9928 23.9477 11.9928 23.8793V23.3C11.9928 23.2789 11.977 23.2683 11.9612 23.2683C11.9401 23.2683 11.9295 23.2841 11.9295 23.3V23.8793C11.9295 23.9477 11.8768 24.0004 11.8083 24.0004C11.7399 24.0004 11.6872 23.9477 11.6872 23.8793V22.7366C11.6872 22.7155 11.6714 22.705 11.6555 22.705C11.6345 22.705 11.6187 22.7207 11.6187 22.7366V23.0578C11.6187 23.1156 11.5713 23.1578 11.5134 23.1578C11.4555 23.1578 11.4081 23.1104 11.4081 23.0578L11.4083 22.6733ZM10.1587 18.2183C10.4234 18.2183 10.6379 18.4329 10.6379 18.6975C10.6379 18.9622 10.4234 19.1767 10.1587 19.1767C9.89403 19.1767 9.6795 18.9622 9.6795 18.6975C9.6795 18.4329 9.89403 18.2183 10.1587 18.2183ZM9.55303 19.3031H10.7538C11.0856 19.3031 11.3542 19.5717 11.3542 19.9034V21.3727C11.3542 21.4885 11.2594 21.5833 11.1435 21.5833C11.0224 21.5833 10.9329 21.4884 10.9329 21.3727V20.0245C10.9329 19.9929 10.9065 19.9666 10.875 19.9666C10.8433 19.9666 10.8171 19.993 10.8171 20.0245V23.6738C10.8171 23.8528 10.6854 24.0002 10.5169 24.0002C10.3485 24.0002 10.2168 23.8528 10.2168 23.6738V21.5937C10.2168 21.5621 10.1905 21.5358 10.1589 21.5358C10.1273 21.5358 10.101 21.5622 10.101 21.5937V23.6738C10.101 23.8528 9.96936 24.0002 9.80087 24.0002C9.63238 24.0002 9.50072 23.8528 9.50072 23.6738V20.0245C9.50072 19.9929 9.47437 19.9666 9.44283 19.9666C9.41128 19.9666 9.38493 19.993 9.38493 20.0245V21.3779C9.38493 21.4937 9.29011 21.5884 9.17432 21.5884C9.05314 21.5884 8.96361 21.4936 8.96361 21.3779V19.9034C8.95274 19.5717 9.22653 19.3031 9.55303 19.3031Z" fill="#545454"/>
</svg>
