<svg width="48" height="48" viewBox="0 0 48 48" fill="none" xmlns="http://www.w3.org/2000/svg">
<path d="M18 10H14C11.7909 10 10 11.7909 10 14V38C10 40.2091 11.7909 42 14 42H34C36.2091 42 38 40.2091 38 38V14C38 11.7909 36.2091 10 34 10H30" stroke="#D97B28" stroke-width="3" stroke-linecap="round" stroke-linejoin="round"/>
<rect x="18" y="6" width="12" height="8" rx="4" stroke="#D97B28" stroke-width="3" stroke-linecap="round" stroke-linejoin="round"/>
<path d="M28 22H23C21.3431 22 20 23.3431 20 25C20 26.6569 21.3431 28 23 28H25C26.6569 28 28 29.3431 28 31C28 32.6569 26.6569 34 25 34H20" stroke="#D97B28" stroke-width="3" stroke-linecap="round" stroke-linejoin="round"/>
<path d="M25.5 34C25.5 33.1716 24.8284 32.5 24 32.5C23.1716 32.5 22.5 33.1716 22.5 34H25.5ZM22.5 36C22.5 36.8284 23.1716 37.5 24 37.5C24.8284 37.5 25.5 36.8284 25.5 36H22.5ZM25.5 20C25.5 19.1716 24.8284 18.5 24 18.5C23.1716 18.5 22.5 19.1716 22.5 20H25.5ZM22.5 22C22.5 22.8284 23.1716 23.5 24 23.5C24.8284 23.5 25.5 22.8284 25.5 22H22.5ZM22.5 34V36H25.5V34H22.5ZM22.5 20V22H25.5V20H22.5Z" fill="#D97B28"/>
</svg>
