<svg width="64" height="64" viewBox="0 0 64 64" fill="none" xmlns="http://www.w3.org/2000/svg">
<path d="M10.1146 47.1324H25.2499V54.8948H17.3749C17.2121 54.8943 17.0509 54.9259 16.9003 54.9878C16.7498 55.0498 16.6129 55.1408 16.4976 55.2557C16.3824 55.3707 16.2909 55.5072 16.2285 55.6576C16.1661 55.8079 16.1339 55.9691 16.1339 56.1319C16.1339 56.2947 16.1661 56.4558 16.2285 56.6062C16.2909 56.7565 16.3824 56.8931 16.4976 57.008C16.6129 57.1229 16.7498 57.214 16.9003 57.2759C17.0509 57.3378 17.2121 57.3694 17.3749 57.3689H46.6249C46.7877 57.3694 46.949 57.3378 47.0995 57.2759C47.2501 57.214 47.3869 57.1229 47.5022 57.008C47.6175 56.8931 47.709 56.7565 47.7714 56.6062C47.8338 56.4558 47.8659 56.2947 47.8659 56.1319C47.8659 55.9691 47.8338 55.8079 47.7714 55.6576C47.709 55.5072 47.6175 55.3707 47.5022 55.2557C47.3869 55.1408 47.2501 55.0498 47.0995 54.9878C46.949 54.9259 46.7877 54.8943 46.6249 54.8948H38.7499V47.1324H53.8858C55.4148 47.132 56.8904 46.57 58.0324 45.5531C59.1743 44.5363 59.9029 43.1354 60.0799 41.6167H3.91992C4.09713 43.1355 4.82592 44.5363 5.96791 45.5531C7.1099 46.5699 8.58554 47.1319 10.1146 47.1324Z" fill="#D97B28"/>
<path d="M53.8854 6.63086H10.1147C9.29528 6.63086 8.4839 6.79225 7.72686 7.10582C6.96983 7.41939 6.28197 7.87901 5.70256 8.45841C5.12315 9.03782 4.66354 9.72568 4.34997 10.4827C4.03639 11.2397 3.875 12.0511 3.875 12.8705V39.1427H60.125V12.8704C60.125 12.051 59.9636 11.2396 59.65 10.4826C59.3365 9.72561 58.8769 9.03777 58.2975 8.45837C57.7181 7.87898 57.0302 7.41938 56.2732 7.10581C55.5162 6.79225 54.7048 6.63086 53.8854 6.63086ZM21.4407 29.9263L29.5691 15.8473C29.8154 15.4206 30.1698 15.0662 30.5965 14.8199C31.0232 14.5735 31.5073 14.4438 32 14.4438C32.4927 14.4438 32.9768 14.5735 33.4035 14.8199C33.8302 15.0662 34.1846 15.4206 34.4309 15.8473L42.5593 29.9263C42.8057 30.353 42.9354 30.8371 42.9354 31.3298C42.9354 31.8225 42.8057 32.3066 42.5593 32.7333C42.313 33.16 41.9586 33.5143 41.5319 33.7607C41.1052 34.0071 40.6212 34.1368 40.1284 34.1368H23.8716C23.3788 34.1368 22.8948 34.0071 22.4681 33.7607C22.0414 33.5143 21.687 33.16 21.4407 32.7333C21.1943 32.3066 21.0646 31.8225 21.0646 31.3298C21.0646 30.8371 21.1943 30.353 21.4407 29.9263Z" fill="#D97B28"/>
<path d="M32 30.8896C32.7767 30.8896 33.4062 30.26 33.4062 29.4834C33.4062 28.7067 32.7767 28.0771 32 28.0771C31.2233 28.0771 30.5938 28.7067 30.5938 29.4834C30.5938 30.26 31.2233 30.8896 32 30.8896Z" fill="#D97B28"/>
<path d="M30.7637 20.7898V25.4436C30.7637 25.7717 30.894 26.0863 31.126 26.3183C31.358 26.5503 31.6726 26.6807 32.0007 26.6807C32.3288 26.6807 32.6435 26.5503 32.8755 26.3183C33.1075 26.0863 33.2378 25.7717 33.2378 25.4436V20.7898C33.2378 20.4617 33.1075 20.1471 32.8755 19.9151C32.6435 19.6831 32.3288 19.5527 32.0007 19.5527C31.6726 19.5527 31.358 19.6831 31.126 19.9151C30.894 20.1471 30.7637 20.4617 30.7637 20.7898Z" fill="#D97B28"/>
</svg>
