<svg width="24" height="24" viewBox="0 0 24 24" fill="none" xmlns="http://www.w3.org/2000/svg">
<g clip-path="url(#clip0_506_2056)">
<path d="M4.01881 9.39746H2.50881C2.34555 9.39746 2.21313 9.52987 2.21313 9.69313V11.7639C2.21313 11.9271 2.34555 12.0596 2.50881 12.0596H4.01876C4.18202 12.0596 4.31444 11.9271 4.31444 11.7639V9.69313C4.31449 9.52987 4.18207 9.39746 4.01881 9.39746ZM3.72314 9.98881V10.174H2.80448V9.98881H3.72314ZM2.80448 11.4683V10.7653H3.72309V11.4683H2.80448Z" fill="#545454"/>
<path d="M5.6581 12.0596H7.1681C7.33136 12.0596 7.46378 11.9271 7.46378 11.7639V9.69313C7.46378 9.52987 7.33136 9.39746 7.1681 9.39746H5.6581C5.49484 9.39746 5.36243 9.52987 5.36243 9.69313V11.7639C5.36243 11.9271 5.49484 12.0596 5.6581 12.0596ZM5.95377 11.4682V10.7653H6.87243V11.4682H5.95377ZM6.87243 9.98876V10.1739H5.95377V9.98876H6.87243Z" fill="#545454"/>
<path d="M4.01881 12.5898H2.50881C2.34555 12.5898 2.21313 12.7223 2.21313 12.8855V14.9563C2.21313 15.1196 2.34555 15.252 2.50881 15.252H4.01876C4.18202 15.252 4.31444 15.1196 4.31444 14.9563V12.8855C4.31449 12.7222 4.18207 12.5898 4.01881 12.5898ZM3.72314 13.1812V13.3664H2.80448V13.1812H3.72314ZM2.80448 14.6606V13.9577H3.72309V14.6606H2.80448Z" fill="#545454"/>
<path d="M11.1805 10.3828H9.67055C9.50729 10.3828 9.37488 10.5152 9.37488 10.6785V12.7493C9.37488 12.9125 9.50729 13.045 9.67055 13.045H11.1805C11.3438 13.045 11.4762 12.9125 11.4762 12.7493V10.6785C11.4762 10.5152 11.3438 10.3828 11.1805 10.3828ZM10.8848 10.9742V11.1594H9.96622V10.9742H10.8848ZM9.96622 12.4537V11.7507H10.8848V12.4537H9.96622Z" fill="#545454"/>
<path d="M14.3298 10.3828H12.8198C12.6566 10.3828 12.5242 10.5152 12.5242 10.6785V12.7493C12.5242 12.9125 12.6566 13.045 12.8198 13.045H14.3298C14.4931 13.045 14.6255 12.9125 14.6255 12.7493V10.6785C14.6255 10.5152 14.4931 10.3828 14.3298 10.3828ZM14.0342 10.9742V11.1594H13.1155V10.9742H14.0342ZM13.1155 12.4537V11.7507H14.0342V12.4537H13.1155Z" fill="#545454"/>
<path d="M11.1805 13.5752H9.67055C9.50729 13.5752 9.37488 13.7076 9.37488 13.8709V15.9416C9.37488 16.1049 9.50729 16.2373 9.67055 16.2373H11.1805C11.3438 16.2373 11.4762 16.1049 11.4762 15.9416V13.8709C11.4762 13.7076 11.3438 13.5752 11.1805 13.5752ZM10.8848 14.1665V14.3517H9.96622V14.1665H10.8848ZM9.96622 15.6459V14.943H10.8848V15.6459H9.96622Z" fill="#545454"/>
<path d="M16.8319 14.0371H18.3419C18.5051 14.0371 18.6376 13.9047 18.6376 13.7415V11.6707C18.6376 11.5074 18.5051 11.375 18.3419 11.375H16.8319C16.6687 11.375 16.5363 11.5074 16.5363 11.6707V13.7415C16.5363 13.9047 16.6686 14.0371 16.8319 14.0371ZM17.1276 13.4458V12.7429H18.0462V13.4458H17.1276ZM18.0462 11.9663V12.1515H17.1276V11.9663H18.0462Z" fill="#545454"/>
<path d="M19.9812 14.0371H21.4912C21.6545 14.0371 21.7869 13.9047 21.7869 13.7415V11.6707C21.7869 11.5074 21.6545 11.375 21.4912 11.375H19.9812C19.818 11.375 19.6855 11.5074 19.6855 11.6707V13.7415C19.6855 13.9047 19.818 14.0371 19.9812 14.0371ZM20.2769 13.4458V12.7429H21.1956V13.4458H20.2769ZM21.1956 11.9663V12.1515H20.2769V11.9663H21.1956Z" fill="#545454"/>
<path d="M16.8321 17.2295H18.342C18.5053 17.2295 18.6377 17.0971 18.6377 16.9338V14.8631C18.6377 14.6998 18.5053 14.5674 18.342 14.5674H16.8321C16.6688 14.5674 16.5364 14.6998 16.5364 14.8631V16.9338C16.5364 17.0971 16.6687 17.2295 16.8321 17.2295ZM17.1277 16.6381V15.9352H18.0463V16.6381H17.1277ZM18.0463 15.1587V15.3439H17.1277V15.1587H18.0463Z" fill="#545454"/>
<path d="M23.7437 18.2861L23.2185 18.2156V10.8877H23.6053C23.7686 10.8877 23.901 10.7553 23.901 10.592V7.39975C23.901 7.23649 23.7686 7.10408 23.6053 7.10408H16.7393V6.40723C16.7393 6.24397 16.6069 6.11155 16.4436 6.11155H9.57785V5.42165C9.57785 5.25839 9.44549 5.12598 9.28218 5.12598H0.394924C0.231614 5.12598 0.0992511 5.25839 0.0992511 5.42165V8.61418C0.0992511 8.77744 0.231614 8.90986 0.394924 8.90986H0.781764V15.2035L0.335051 15.1435C0.173268 15.1215 0.0243965 15.2353 0.0026645 15.3972C-0.0190675 15.559 0.0945203 15.7078 0.256352 15.7295L23.6649 18.8721C23.6783 18.8739 23.6915 18.8748 23.7046 18.8748C23.8504 18.8748 23.9773 18.7669 23.9973 18.6184C24.0191 18.4566 23.9055 18.3078 23.7437 18.2861ZM22.6271 18.1362L22.3048 18.093V17.495C22.3048 17.3318 22.1724 17.1994 22.0091 17.1994H21.787V14.8633C21.787 14.7 21.6546 14.5676 21.4913 14.5676H19.9813C19.8181 14.5676 19.6856 14.7 19.6856 14.8633V17.1994H19.4638C19.3006 17.1994 19.1682 17.3318 19.1682 17.495V17.6719L16.0572 17.2542V10.8877H22.627L22.6271 18.1362ZM21.1957 17.1994H20.277V15.159H21.1957V17.1994ZM21.7135 17.7907V18.0136L20.0532 17.7907H21.7135ZM14.0341 16.2069H13.1155V14.1667H14.0341V16.2069ZM14.5518 16.7982V17.0521L12.6606 16.7982H14.5518ZM14.8475 16.2069H14.6255V13.871C14.6255 13.7077 14.4931 13.5753 14.3298 13.5753H12.8198C12.6565 13.5753 12.5241 13.7077 12.5241 13.871V16.2069H12.3022C12.1389 16.2069 12.0065 16.3393 12.0065 16.5025V16.7104L8.89553 16.2928V9.89573H15.4659V17.1749L15.1431 17.1315V16.5026C15.1432 16.3392 15.0107 16.2069 14.8475 16.2069ZM16.7393 9.60006V7.69548H23.3096V10.2964H16.0572V9.89573H16.4436C16.6069 9.89573 16.7393 9.76332 16.7393 9.60006ZM9.57785 8.61423V6.70295H16.1479V9.30438H8.89553V8.9099H9.28218C9.44549 8.9099 9.57785 8.77749 9.57785 8.61423ZM0.690598 5.71737H8.9865V8.31856H1.08222C1.08064 8.31856 1.07906 8.31831 1.07744 8.31831C1.07581 8.31831 1.07428 8.31851 1.07266 8.31856H0.690598V5.71737ZM1.37316 8.9099H8.30424V16.2134L7.98146 16.1701V15.517C7.98146 15.3537 7.84905 15.2213 7.68579 15.2213H7.46393V12.8853C7.46393 12.722 7.33152 12.5896 7.16826 12.5896H5.65825C5.49499 12.5896 5.36258 12.722 5.36258 12.8853V15.2213H5.14053C4.97727 15.2213 4.84486 15.3537 4.84486 15.517V15.749L1.37316 15.2829V8.9099ZM6.87259 15.2213H5.95393V13.181H6.87259V15.2213ZM5.4362 15.8126H7.39011V16.0907L5.4362 15.8284V15.8126Z" fill="#545454"/>
</g>
<defs>
<clipPath id="clip0_506_2056">
<rect width="24" height="24" fill="white"/>
</clipPath>
</defs>
</svg>
